<svg width="41" height="40" viewBox="0 0 41 40" fill="none" xmlns="http://www.w3.org/2000/svg">
<g clip-path="url(#clip0_221_39101)">
<g clip-path="url(#clip1_221_39101)">
<path d="M30.9829 21.2103C31.039 27.2521 36.2831 29.2626 36.3412 29.2883C36.2969 29.4301 35.5033 32.1535 33.5784 34.9666C31.9143 37.3987 30.1873 39.8218 27.4667 39.872C24.7935 39.9213 23.9339 38.2868 20.8776 38.2868C17.8223 38.2868 16.8673 39.8218 14.3367 39.9213C11.7107 40.0207 9.71099 37.2913 8.03314 34.8681C4.60468 29.9115 1.98462 20.8618 5.5027 14.7531C7.2504 11.7195 10.3737 9.7985 13.7637 9.74924C16.3424 9.70005 18.7764 11.4841 20.3528 11.4841C21.9282 11.4841 24.886 9.33862 27.9955 9.65371C29.2972 9.70789 32.9512 10.1795 35.2975 13.6139C35.1084 13.7311 30.9376 16.1592 30.9829 21.2103V21.2103ZM25.9589 6.37445C27.353 4.68684 28.2914 2.33754 28.0354 0C26.0258 0.0807684 23.5957 1.33915 22.1543 3.02583C20.8625 4.51946 19.7311 6.91011 20.0364 9.20139C22.2763 9.37469 24.5646 8.06313 25.9589 6.37445" fill="black"/>
</g>
</g>
<defs>
<clipPath id="clip0_221_39101">
<rect width="40.0001" height="40.0001" fill="white" transform="translate(0.499901)"/>
</clipPath>
<clipPath id="clip1_221_39101">
<rect width="32.508" height="40.0001" fill="white" transform="translate(3.83321)"/>
</clipPath>
</defs>
</svg>
