<svg width="41" height="40" viewBox="0 0 41 40" fill="none" xmlns="http://www.w3.org/2000/svg">
<g clip-path="url(#clip0_221_39093)">
<path d="M40.5001 20.1249C40.5011 16.2776 39.4055 12.5107 37.3433 9.27061C35.281 6.03055 32.3386 3.45324 28.8647 1.84417C25.3908 0.235104 21.5312 -0.338251 17.7432 0.192069C13.9553 0.722388 10.3979 2.33415 7.49281 4.8363C4.58768 7.33844 2.45659 10.6261 1.35215 14.3095C0.247714 17.9929 0.216236 21.9176 1.26145 25.6185C2.30666 29.3193 4.38474 32.6411 7.24936 35.1901C10.114 37.739 13.645 39.4083 17.424 40.0001V25.9418H12.3499V20.1249H17.424V15.7011C17.424 10.6499 20.3626 7.87444 24.9293 7.87444C26.4308 7.89562 27.9288 8.02713 29.4113 8.2679V13.2128H26.9377C26.5037 13.1537 26.062 13.1948 25.6461 13.3329C25.2302 13.4711 24.851 13.7026 24.5373 14.01C24.2236 14.3175 23.9835 14.6927 23.8353 15.1073C23.6871 15.5219 23.6346 15.965 23.6819 16.403V20.1675H29.221L28.3436 25.9843H23.629V40.0001C28.333 39.2505 32.6166 36.8369 35.7093 33.1935C38.802 29.5501 40.5009 24.916 40.5001 20.1249Z" fill="#1977F3"/>
</g>
<defs>
<clipPath id="clip0_221_39093">
<rect width="40.0001" height="40.0001" fill="white" transform="translate(0.500031)"/>
</clipPath>
</defs>
</svg>
