<svg width="41" height="40" viewBox="0 0 41 40" fill="none" xmlns="http://www.w3.org/2000/svg">
<g clip-path="url(#clip0_221_39095)">
<path d="M39.5654 20.3741C39.5654 18.7354 39.4324 17.5395 39.1446 16.2993H20.4313V23.696H31.4156C31.1942 25.5341 29.9983 28.3024 27.3408 30.1625L27.3035 30.4102L33.2203 34.9939L33.6302 35.0348C37.395 31.5578 39.5654 26.4421 39.5654 20.3741Z" fill="#4285F4"/>
<path d="M20.4313 39.8624C25.8126 39.8624 30.3304 38.0906 33.6302 35.0346L27.3407 30.1624C25.6577 31.3361 23.3987 32.1555 20.4313 32.1555C15.1606 32.1555 10.6871 28.6787 9.09246 23.873L8.85872 23.8929L2.70634 28.6543L2.62589 28.8779C5.90345 35.3888 12.6358 39.8624 20.4313 39.8624Z" fill="#34A853"/>
<path d="M9.09247 23.8734C8.67171 22.6333 8.4282 21.3044 8.4282 19.9314C8.4282 18.5583 8.67171 17.2296 9.07034 15.9894L9.05919 15.7253L2.82971 10.8875L2.6259 10.9844C1.27505 13.6862 0.499939 16.7203 0.499939 19.9314C0.499939 23.1426 1.27505 26.1765 2.6259 28.8783L9.09247 23.8734Z" fill="#FBBC05"/>
<path d="M20.4313 7.70673C24.1739 7.70673 26.6984 9.32338 28.138 10.6744L33.763 5.18215C30.3084 1.971 25.8126 0 20.4313 0C12.6358 0 5.90345 4.47344 2.62589 10.9843L9.07032 15.9893C10.6871 11.1837 15.1606 7.70673 20.4313 7.70673Z" fill="#EB4335"/>
</g>
<defs>
<clipPath id="clip0_221_39095">
<rect width="40.0001" height="40.0001" fill="white" transform="translate(0.499954)"/>
</clipPath>
</defs>
</svg>
