<svg width="72" height="48" viewBox="0 0 72 48" fill="none" xmlns="http://www.w3.org/2000/svg">
<path d="M16.7599 26.8966L8.09726 33.2613C7.769 32.0698 7.78116 30.7507 8.13374 29.3039L8.17021 29.1762H10.1945V29.158C10.8754 29.1458 11.5805 29.0547 12.31 28.8844C12.9909 28.7385 13.7082 28.5197 14.462 28.2279C15.2158 27.924 15.9818 27.4802 16.7599 26.8966ZM15.3556 25.62C12.1216 23.8936 10.8815 21.5167 11.6353 18.4893C11.9635 17.1519 12.5714 16.0091 13.459 15.0608C14.3465 14.1003 15.3799 13.3161 16.5593 12.7082C17.7386 12.1003 18.997 11.6565 20.3343 11.3769C21.6839 11.0851 22.9787 10.9392 24.2188 10.9392C25.0091 10.9392 25.8116 11.0061 26.6261 11.1398C27.4407 11.2614 28.2128 11.4742 28.9422 11.7781C29.6839 12.0821 30.3526 12.4954 30.9483 13.0182C31.5441 13.5289 32.0182 14.1732 32.3708 14.9513C32.4073 15.0121 32.4377 15.079 32.462 15.152C32.4863 15.2127 32.5046 15.2735 32.5167 15.3343L24.4377 21.2796C24.766 20.9878 25.0213 20.6899 25.2036 20.386C25.3982 20.082 25.538 19.7842 25.6231 19.4924L25.6778 19.2735C25.9453 18.2523 25.8237 17.4741 25.3131 16.9392C24.7903 16.3799 23.9757 16.1003 22.8693 16.1003C22.4559 16.1003 22.0182 16.1489 21.5562 16.2462C21.0942 16.3313 20.6565 16.4772 20.2432 16.6839C19.8419 16.8784 19.4894 17.1398 19.1854 17.4681C18.8815 17.7842 18.6687 18.1732 18.5471 18.6352C18.4012 19.2431 18.6079 19.7963 19.1672 20.2948C19.7872 20.8298 20.9544 21.3829 22.6687 21.9544C22.7781 21.9908 22.8754 22.0273 22.9605 22.0638C23.0578 22.0881 23.1489 22.1185 23.234 22.155L17.2888 26.5136C16.9119 26.3677 16.5653 26.2218 16.2492 26.0759C15.9331 25.9179 15.6353 25.7659 15.3556 25.62ZM28.614 19.4924L36.693 13.5653C36.6201 13.6504 36.4559 13.8328 36.2006 14.1124C35.9574 14.3921 35.6839 14.7082 35.3799 15.0608C35.076 15.4012 34.772 15.7599 34.4681 16.1368C34.1641 16.5015 33.921 16.8115 33.7386 17.0668C33.5441 17.3465 33.3739 17.6322 33.228 17.924C33.0942 18.2036 32.9848 18.4589 32.8997 18.6899C32.8024 18.9574 32.7234 19.2188 32.6626 19.4741H32.5897V19.4924H28.614ZM26.9179 23.8693C29.5562 25.5714 30.5046 27.9057 29.7629 30.8723C29.4225 32.2583 28.8389 33.4376 28.0122 34.4103C27.1854 35.3707 26.2128 36.1489 25.0942 36.7446C23.9878 37.3403 22.7842 37.772 21.4833 38.0394C20.1824 38.3069 18.8815 38.4406 17.5805 38.4406C16.9483 38.4406 16.2857 38.3981 15.5927 38.313C14.8997 38.24 14.2128 38.1124 13.5319 37.93C12.8511 37.7476 12.2006 37.5045 11.5805 37.2005C10.9605 36.8966 10.4012 36.5258 9.90274 36.0881C9.75684 36.0151 9.57447 35.9786 9.35562 35.9786C9.03951 35.9786 8.66261 36.0455 8.22492 36.1793C7.78723 36.3008 7.31915 36.471 6.82067 36.6899C6.33435 36.8966 5.82371 37.1337 5.28875 37.4011C4.7538 37.6686 4.23708 37.9482 3.7386 38.24C2.54711 38.8966 1.30091 39.6443 0 40.4832L15.1003 29.4133C14.772 30.7872 14.8815 31.7841 15.4286 32.4042C16 33.0486 17.1125 33.3708 18.766 33.3708C19.2036 33.3708 19.6353 33.3282 20.0608 33.2431C20.4863 33.1458 20.8815 32.9999 21.2462 32.8054C21.6231 32.6109 21.9453 32.3556 22.2128 32.0394C22.4924 31.7233 22.6869 31.3343 22.7964 30.8723C23.0152 29.9969 22.8693 29.3161 22.3587 28.8297C21.8237 28.3191 20.772 27.7902 19.2036 27.2431C18.9362 27.158 18.6809 27.0668 18.4377 26.9696L24.383 22.5927C24.8936 22.7994 25.3556 23.0121 25.769 23.231C26.1945 23.4376 26.5775 23.6504 26.9179 23.8693Z" fill="#6750A4"/>
<path d="M55.4954 19.0912L72 7C70.6261 8.05775 69.3313 9.20668 68.1155 10.4468C67.3982 11.152 66.8024 11.7842 66.3283 12.3435C65.8541 12.9027 65.386 13.5106 64.924 14.1672C64.462 14.8115 64.0243 15.4985 63.6109 16.2279C63.2097 16.9453 62.8754 17.6869 62.6079 18.4529L57.7386 38.1489H50.8997C50.2067 36.1549 49.5927 34.3738 49.0578 32.8054C48.7295 31.8571 48.4681 31.1094 48.2736 30.5622C48.079 30.003 47.9027 29.4923 47.7447 29.0303C47.5866 28.5683 47.4529 28.1854 47.3435 27.8814C47.234 27.5775 47.1793 27.4194 47.1793 27.4072C47.0213 26.9331 46.7781 26.696 46.4498 26.696C46.2188 26.696 45.9514 26.8115 45.6474 27.0425C45.003 27.5045 44.5289 27.9179 44.2249 28.2826C43.9331 28.6352 43.7264 28.9817 43.6049 29.3221L41.4164 38.1489H35.9453C34.6444 38.1853 33.4043 38.3434 32.2249 38.623C31.0334 38.9027 29.9696 39.2066 29.0334 39.5349C28.0973 39.8753 27.3252 40.1975 26.7173 40.5014C26.0973 40.8054 25.7143 40.9999 25.5684 41.085L51.5927 21.9726L53.4529 27.389L55.4954 19.0912ZM64.2675 11.3587L52.5046 20.003C52.9422 19.5775 53.3982 19.0364 53.8723 18.3799C54.3587 17.7112 54.8207 17 55.2584 16.2462C55.696 15.4924 56.0912 14.7386 56.4438 13.9848C56.7964 13.231 57.0699 12.5562 57.2644 11.9605L57.4103 11.3587H64.2675ZM44.4438 25.93L35.9088 32.1853L41.0699 11.3587H47.9453L51.228 20.9331L46.231 24.617L45.3739 22.1367L44.4438 25.93Z" fill="#6750A4"/>
</svg>
