<svg width="72" height="48" viewBox="0 0 72 48" fill="none" xmlns="http://www.w3.org/2000/svg">
<path d="M16.6015 22.5954C17.3379 19.891 18.3899 17.7945 19.7153 16.348C21.2092 14.6918 22.8292 14.0839 25.1015 14.0839C25.3329 14.1468 25.4592 14.2935 25.4592 14.4822C25.4381 14.6918 25.354 14.9434 25.2067 15.2159C24.4282 16.4738 23.229 17.5639 22.1349 18.5283L33.6856 10.0797C31.4344 8.44444 28.4678 8.02516 25.7327 8.02516C16.8119 8.02516 10.4579 14.587 8.35396 22.9727L8.24876 23.4759C7.3651 26.7673 4.41955 31.086 2 33.3082L16.6015 22.5954ZM20.6832 28.0461H23.4814C23.755 28.0671 23.9233 28.1509 23.9653 28.2977C23.9864 28.4654 23.9443 28.6751 23.8181 28.9057C23.6708 29.1572 23.4814 29.4298 23.25 29.7442C22.5347 30.6457 21.651 31.4423 20.7884 32.218L33.9381 22.5954H22.0507L20.6832 28.0461ZM28.2153 15.5723C28.4047 15.9287 28.552 16.369 28.6151 16.935C28.6782 17.501 28.6782 18.13 28.6151 18.7799H36.3366L36.3577 18.5912C36.5891 16.935 36.5681 15.4885 36.2946 14.2306C36.2735 14.0419 36.2314 13.8323 36.1683 13.6017C36.0631 13.2453 36.1052 12.847 36.2735 12.3857C36.9257 10.7086 38.5037 8.98952 39.7871 7.77358C41.0074 6.55765 42.4171 5.29979 44.0161 4L28.2153 15.5723ZM19.021 33.4969C17.6955 33.2872 16.5594 32.7002 15.9913 31.4423C15.6337 30.7086 15.4864 29.7652 15.5074 28.6541C15.5285 27.543 15.7178 26.2432 16.0755 24.7547L16.1597 24.3983L7.34406 30.8553C7.68069 34.2096 9.23762 36.914 12.3094 38.4235L19.021 33.4969ZM24.9121 32.4067C23.9022 33.1405 22.5767 33.5178 20.9356 33.5807L8.08045 42.9937C9.80569 42.0503 12.4567 40.6876 14.3292 40.1216C15.0656 39.8491 15.9913 39.5765 16.7908 39.5765C17.3168 39.6185 17.8639 39.6394 18.4109 39.6394C23.0606 39.6394 28.5941 38.4025 32.1708 35.4256L32.2129 35.3836L34.3379 26.8721C34.5483 26.2642 34.8007 25.6771 35.0743 25.0901C35.1795 24.8176 35.3057 24.587 35.4319 24.3564C35.6213 24.0839 35.8738 23.7694 36.1894 23.392C36.505 23.0356 36.8205 22.6583 37.1361 22.3019C37.4517 21.9455 37.7463 21.6101 38.0198 21.3166C38.2723 21.0231 38.4406 20.8344 38.5248 20.7296L25.4381 30.2893L24.9121 32.4067Z" fill="#6750A4"/>
<path d="M38.651 33.979C39.0718 36.7673 41.302 38.6751 44.0161 39.2411L61.8156 26.2432L65.9814 9.45073L52.2426 19.4927C52.8317 19.1153 54.6832 18.1929 55.2092 18.1929C55.4827 18.1929 55.6299 18.3187 55.651 18.5702C55.672 18.8218 55.651 19.1153 55.5879 19.4298L53.0842 29.5346C52.495 31.5472 51.3589 33.6436 48.9394 33.6436C47.8663 33.6436 47.172 33.3711 46.8775 32.826C46.5619 32.26 46.5619 31.2956 46.8775 29.9748L46.9406 29.7442H38.9876L38.9455 29.891C38.5458 31.4214 38.4616 32.7841 38.651 33.979ZM70 5.09015C69.8106 5.19497 69.5582 5.32075 69.2426 5.48847C68.9059 5.67715 68.5272 5.86583 68.1064 6.09644C67.6856 6.32704 67.2438 6.57862 66.7809 6.83019C64.8032 7.9413 63.7723 8.50734 61.3738 8.80084H58.2178L56.745 14.7338L70 5.09015ZM39.4926 44C41.2389 43.0356 42.9641 42.0922 44.7735 41.2537C46.0359 40.6038 47.698 39.8491 49.0446 39.5346C54.4517 38.9476 59.2067 35.4885 60.8267 30.1635C61.521 28.5073 63.4988 26.6834 64.8243 25.5304L39.4926 44Z" fill="#6750A4"/>
</svg>
