<?xml version="1.0" encoding="UTF-8" standalone="no"?>
<!DOCTYPE svg PUBLIC "-//W3C//DTD SVG 1.1//EN" "http://www.w3.org/Graphics/SVG/1.1/DTD/svg11.dtd">
<!-- Created with Vectornator (http://vectornator.io/) -->
<svg height="100%" stroke-miterlimit="10" style="fill-rule:nonzero;clip-rule:evenodd;stroke-linecap:round;stroke-linejoin:round;" version="1.1" viewBox="0 0 100 200" width="100%" xml:space="preserve" xmlns="http://www.w3.org/2000/svg" xmlns:xlink="http://www.w3.org/1999/xlink">
<g id="Layer-1">
<g opacity="1">
<path d="M55.4062 13.875C54.3373 13.5766 53.1838 15.2491 52.6562 15.9375C50.8107 18.3458 49.1225 20.9629 47.6562 23.625C45.8892 26.8332 44.3493 30.1759 42.75 33.4688C41.0652 36.9376 39.3439 40.3761 37.5938 43.8125C35.54 46.5635 33.6404 49.403 31.7812 52.25C31.5705 52.5727 31.3582 52.9217 31.1562 53.25C30.9538 53.5791 30.7516 53.913 30.5625 54.25C30.1043 55.0666 29.6504 55.8738 29.1875 56.6875C29.0633 56.9058 28.6353 57.5195 28.9062 57.8438C28.9171 57.8568 28.9873 57.924 29.0312 57.9375C29.0388 57.9398 29.0596 57.9408 29.0625 57.9375C29.1077 57.9464 29.3944 57.9768 29.4375 57.9688C30.2739 57.8125 30.9423 56.924 31.4375 56.3438C32.6926 54.8731 33.7124 53.1943 34.6875 51.5312C35.8181 49.6031 36.7785 47.577 37.8125 45.5938C38.9016 44.0637 39.9197 42.4731 41.125 41.0312C42.7306 39.1105 44.5006 37.4075 46.3438 35.7188C46.8594 35.2463 47.3867 34.7806 47.9062 34.3125C47.814 34.4996 47.7171 34.6878 47.625 34.875C44.9913 40.2296 42.9539 45.8947 41.125 51.5625C40.4642 53.6104 39.8298 55.6464 39.25 57.7188C38.5255 60.3084 37.8484 62.9093 37.25 65.5312C34.894 75.8539 33.6248 86.4503 32.8125 97C31.1183 119.004 32.1286 141.765 39.5 162.75C41.3809 168.105 43.7085 173.229 46.4062 178.219C46.6003 178.552 47.175 178.58 47.6875 178.281C48.2 177.983 48.4753 177.489 48.2812 177.156C45.5978 172.215 43.2492 167.118 41.375 161.812C34.0186 140.989 32.9925 118.383 34.625 96.5312C35.3686 86.5781 36.5336 76.6081 38.625 66.8438C40.5608 57.8059 43.1928 48.7717 46.7188 40.2188C47.6418 37.9797 48.5813 35.7492 49.6875 33.5938C49.9356 33.1104 50.3126 32.6749 50.5938 32.1875C50.9291 32.016 51.2503 31.8012 51.5625 31.5938C51.4293 32.487 51.3012 33.3849 51.1875 34.2812C50.5817 39.0551 50.2779 43.8785 50.1562 48.6875C49.9748 55.8634 50.1289 63.0417 50.1562 70.2188C50.216 70.4132 50.4821 70.4982 50.7812 70.4062C51.0804 70.3143 51.2785 70.0694 51.2188 69.875C51.1951 57.3447 50.7448 44.6889 52.5625 32.25C52.8255 30.4499 53.0656 28.6047 53.5312 26.8438C54.2829 24.0012 55.3522 21.2415 55.9062 18.3438C56.1205 17.2231 56.318 16.0099 56.0938 14.875C56.0238 14.5212 55.7992 13.9847 55.4062 13.875ZM54.6875 14.9375C54.7608 15.0313 54.8376 15.1065 54.875 15.2188C54.9793 15.5321 54.9992 15.8915 55 16.2188C55.002 17.0041 54.8957 17.7932 54.75 18.5625C54.3192 20.8369 53.5916 23.0427 52.9062 25.25C52.4732 26.6449 52.1704 28.0677 51.9062 29.5C51.8936 29.4984 51.8881 29.5013 51.875 29.5C50.7697 29.3917 49.9138 30.712 49.3438 31.6875C49.1232 31.8225 48.8842 31.923 48.6875 32.0938C47.0168 33.5445 45.4108 35.0638 43.8125 36.5938C42.6323 37.7235 41.6585 39.0693 40.5938 40.3125C42.4018 36.6126 44.1652 32.8778 45.9688 29.1875C47.6847 25.6764 49.5095 22.295 51.6562 19.0312C52.2846 18.0759 52.8999 17.0968 53.5938 16.1875C53.8222 15.8881 54.157 15.4934 54.4375 15.1875C54.5376 15.0783 54.6087 15.0101 54.6875 14.9375Z" fill="#ffffff" stroke="none"/>
</g>
</g>
</svg>
