<?xml version="1.0" encoding="UTF-8" standalone="no"?>
<!DOCTYPE svg PUBLIC "-//W3C//DTD SVG 1.1//EN" "http://www.w3.org/Graphics/SVG/1.1/DTD/svg11.dtd">
<!-- Created with Vectornator (http://vectornator.io/) -->
<svg height="100%" stroke-miterlimit="10" style="fill-rule:nonzero;clip-rule:evenodd;stroke-linecap:round;stroke-linejoin:round;" version="1.1" viewBox="0 0 100 100" width="100%" xml:space="preserve" xmlns="http://www.w3.org/2000/svg" xmlns:xlink="http://www.w3.org/1999/xlink">
<g id="Layer-1">
<g opacity="1">
<g opacity="1">
<path d="M41.0312 29.9062C40.542 29.9907 39.9674 30.2726 39.5938 30.4375C39.0991 30.6558 38.6743 30.9139 38.1875 31.1875C37.4959 31.5762 36.8261 31.9812 36.1562 32.4062C35.1553 33.0414 34.1903 33.7267 33.2188 34.4062C31.5797 35.5526 29.9505 36.7271 28.3125 37.875C26.6965 38.6944 25.0492 39.4985 23.5 40.4375C23.184 40.629 22.8747 40.8024 22.5625 41C22.2511 41.197 21.9325 41.422 21.625 41.625C21.3281 41.821 21.0468 42.0226 20.75 42.2188C20.3799 42.4633 19.3603 42.7828 19.5938 43.4688C19.5956 43.4741 19.6289 43.5179 19.6562 43.5625C19.6732 43.5901 19.6823 43.6288 19.6875 43.625C19.6993 43.6165 19.707 43.6022 19.7188 43.5938C19.7825 43.6417 19.9428 43.7457 19.9688 43.75C20.1859 43.7863 20.423 43.7259 20.625 43.6562C21.5424 43.3398 22.3915 42.7771 23.2188 42.2812C24.6211 41.4408 26.0094 40.5547 27.375 39.6562C27.6307 39.488 27.8721 39.2973 28.125 39.125C30.6789 37.8682 33.2902 36.7584 35.8125 35.4375C36.4283 35.115 36.9532 34.7518 37.5 34.4062C36.766 35.2799 36.0456 36.1579 35.3125 37.0312C32.6598 40.1914 29.7447 43.2719 27.5 46.75C20.9701 56.8682 14.8635 68.8892 15.625 81.25C15.7462 81.6035 16.2999 81.7176 16.8438 81.5312C17.3876 81.3448 17.7149 80.916 17.5938 80.5625C16.9647 71.0093 20.6236 61.8424 25.125 53.5938C26.5746 50.9375 28.109 48.2122 29.875 45.75C30.793 44.4701 31.8447 43.2771 32.8438 42.0625C34.4897 40.0615 36.1275 38.0571 37.7812 36.0625C38.1245 35.6485 38.4695 35.2579 38.8125 34.8438C38.9605 34.6651 39.1335 34.4913 39.2812 34.3125C39.5823 33.9482 40.6799 32.8317 40.5625 32.25C40.4158 31.5234 39.5433 31.7033 39.0625 31.9375C38.2933 32.3122 37.6944 32.9825 37 33.4688C36.4912 33.8251 35.9221 34.0807 35.375 34.375C34.8016 34.6834 34.2089 34.9363 33.625 35.2188C34.3106 34.7277 34.9857 34.2176 35.6875 33.75C36.9601 32.9021 38.264 32.1592 39.5938 31.4062C39.9397 31.2103 40.3572 31.0602 40.75 30.9062C41.0423 31.8225 40.6954 32.6519 40.3438 33.5625C39.6541 35.3481 38.6599 36.9978 37.9062 38.75C37.3461 40.0524 37.0457 41.5191 36.7812 42.9062C36.0232 46.8825 36.0538 50.9381 36.0625 54.9688C36.1219 55.1632 36.4196 55.2476 36.7188 55.1562C37.0179 55.0649 37.2157 54.8507 37.1562 54.6562C37.1675 49.7962 37.1358 44.8292 38.5312 40.125C39.3152 37.4821 40.9816 35.2277 41.8125 32.5938C41.9418 32.1838 42.0493 31.7414 42.0938 31.3125C42.1178 31.0806 42.1422 30.8551 42.0938 30.625C41.9517 29.9509 41.5205 29.8218 41.0312 29.9062Z" fill="#ffffff" stroke="none"/>
</g>
<g opacity="1">
<path d="M23.4688 18.3125C22.3094 18.2219 21.2872 19.163 20.5625 19.9375C20.0214 20.5158 19.5177 21.1261 19.0312 21.75C18.6748 22.2073 18.325 22.6676 17.9688 23.125C17.6297 23.5603 17.2285 24.0756 16.875 24.5C15.9207 25.6458 13.9306 28.4478 12.3438 26.625C12.085 26.3277 11.867 25.9748 11.6875 25.625C11.4354 25.1336 11.2458 24.6135 11.0625 24.0938C10.8919 23.7502 10.341 23.7063 9.8125 23.9688C9.28401 24.2312 8.98563 24.719 9.15625 25.0625C9.41287 25.7775 9.69616 26.4739 10.0938 27.125C10.319 27.4939 10.5863 27.8636 10.9062 28.1562C13.483 30.5128 16.8082 26.8871 18.3438 25.0312C18.7117 24.5866 19.1155 24.0506 19.4688 23.5938C19.9849 22.9261 20.5055 22.254 21.0312 21.5938C21.4136 21.1136 21.8048 20.612 22.25 20.1875C22.262 20.1761 22.6545 19.9252 22.6875 19.875C22.6889 19.8728 22.6862 19.9067 22.875 20.1562C23.0287 20.3593 23.1449 20.6123 23.25 20.8438C23.739 21.9207 23.8822 23.1189 24.1875 24.25C24.8013 26.5238 26.3208 28.6373 28.8125 28.9375C30.6251 29.1559 32.4279 28.3618 33.9375 27.4375C36.2977 25.9924 38.292 24.0461 40.4062 22.2812C41.3496 21.4938 42.3515 20.6029 43.5 20.125C43.5537 20.1027 43.9243 19.9729 44.0938 19.9688C45.2272 19.9412 46.5324 21.3795 47.2812 22.0938C48.8274 23.5685 50.5184 25.3825 52.7188 25.8125C53.6892 26.0022 54.7417 25.9473 55.7188 25.8438C60.6757 25.3185 64.7157 21.9523 69.6562 21.375C70.697 21.2534 71.3549 22.2796 71.7812 23.0625C72.49 24.3641 73.046 25.9176 74.5 26.5625C76.2628 27.3444 78.3681 27.0022 80.125 26.4062C83.8172 25.1539 86.9673 22.6371 90.125 20.4375C90.2324 20.3501 90.2282 20.1652 90.0938 20C89.9594 19.8348 89.7636 19.7564 89.6562 19.8438C86.6406 21.9266 83.6167 24.3505 80.0938 25.5312C78.605 26.0302 76.8043 26.3206 75.3125 25.6562C72.9781 24.6166 73.1591 20.0468 69.9688 20.375C66.3562 20.7466 63.3086 22.5052 59.9688 23.75C57.9919 24.4868 55.6167 25.1039 53.5 24.6562C51.2072 24.1714 49.4872 21.8547 47.8438 20.3438C46.9708 19.5411 45.8662 18.5682 44.5938 18.625C42.9726 18.6973 41.4405 19.9243 40.2188 20.875C37.8965 22.682 35.8133 24.8487 33.2812 26.375C32.3071 26.9622 31.1702 27.5113 30 27.4688C28.3566 27.409 26.9426 26.0527 26.3438 24.5938C25.9313 23.5889 25.8218 22.4857 25.5625 21.4375C25.3259 20.4811 24.7317 18.4112 23.4688 18.3125Z" fill="#ffffff" stroke="none"/>
</g>
</g>
</g>
</svg>
