<?xml version="1.0" encoding="UTF-8" standalone="no"?>
<!DOCTYPE svg PUBLIC "-//W3C//DTD SVG 1.1//EN" "http://www.w3.org/Graphics/SVG/1.1/DTD/svg11.dtd">
<!-- Created with Vectornator (http://vectornator.io/) -->
<svg height="100%" stroke-miterlimit="10" style="fill-rule:nonzero;clip-rule:evenodd;stroke-linecap:round;stroke-linejoin:round;" version="1.1" viewBox="0 0 100 100" width="100%" xml:space="preserve" xmlns="http://www.w3.org/2000/svg" xmlns:xlink="http://www.w3.org/1999/xlink">
<g id="Layer-1">
<g opacity="1">
<g opacity="1">
<path d="M47.4375 31.4688C46.9499 31.579 46.4925 31.7621 46.1562 31.875C45.7182 32.0221 45.277 32.1829 44.8438 32.3438C42.6246 33.1674 40.4666 34.1682 38.3125 35.1562C36.3749 35.6797 34.4157 36.1456 32.5312 36.8125C31.6648 37.1191 30.5623 37.4701 29.8438 38.0938C29.6076 38.2987 29.2182 38.7003 29.375 39.0625C29.5309 39.4226 30.0911 39.335 30.375 39.2812C31.0267 39.1578 31.6613 38.9186 32.2812 38.6875C32.669 38.5429 33.0518 38.3999 33.4375 38.25C33.7623 38.1238 34.0838 38.007 34.4062 37.875C34.5747 37.806 34.739 37.728 34.9062 37.6562C35.9032 37.2288 36.892 36.7706 37.875 36.3125C39.3077 35.9411 40.728 35.5732 42.1562 35.1875C43.3605 34.8623 44.5596 34.5247 45.75 34.1562C44.5642 34.9416 43.3872 35.7346 42.25 36.625C40.8736 37.7027 39.5471 38.8276 38.25 40C36.1473 41.9005 34.1593 43.9067 32.25 46C29.1622 49.3853 26.2649 52.9691 23.7188 56.7812C20.3363 61.8456 17.6578 67.2702 16.1562 73.1875C16.2059 73.5338 16.6547 73.7639 17.1875 73.6875C17.7203 73.6111 18.1122 73.2838 18.0625 72.9375C20.8903 61.5771 28.3371 51.7701 36.4062 43.5312C38.5276 41.3653 40.7864 39.3283 43.1562 37.4375C43.9316 36.8189 44.7685 36.1029 45.5625 35.5938C46.3401 35.0951 47.1118 34.5972 47.8438 34.0312C47.8044 34.2244 47.7635 34.4168 47.7188 34.5938C47.548 35.2682 47.3045 35.9423 47.0625 36.5938C46.6676 37.6566 46.1981 38.709 45.75 39.75C45.0209 41.4439 44.4189 43.1046 43.9062 44.875C43.9278 45.0637 44.1784 45.1895 44.4688 45.1562C44.7591 45.123 44.9591 44.9387 44.9375 44.75C45.1278 44.1047 45.3088 43.4474 45.5312 42.8125C46.4653 40.1462 47.8812 37.6844 48.6875 34.9688C48.7903 34.6224 48.8612 34.2905 48.9375 33.9375C49.0426 33.4517 49.4817 31.8467 48.8125 31.5C48.4462 31.3102 47.9251 31.3585 47.4375 31.4688ZM47.9688 32.4062C47.9722 32.41 47.9657 32.4334 47.9688 32.4375C47.4768 32.4559 46.9045 32.6321 46.7188 32.6875C46.4966 32.7537 46.283 32.8037 46.0625 32.875C45.8143 32.9552 45.5625 33.0505 45.3125 33.125C45.1674 33.1682 45.0204 33.2075 44.875 33.25C45.266 33.1031 45.6535 32.9321 46.1875 32.75C46.4577 32.6579 46.9017 32.5358 47.1875 32.4688C47.6568 32.3586 47.8795 32.31 47.9688 32.4062Z" fill="#ffffff" stroke="none"/>
</g>
<g opacity="1">
<path d="M59.9375 33.0312C59.7713 32.942 59.5462 32.9444 59.2188 33.0938C58.9888 33.1986 58.7856 33.338 58.5938 33.5C58.4221 33.645 58.1789 33.898 58.0312 34.0625C57.5527 34.5958 57.3186 34.887 56.875 35.4688C56.4632 36.0087 56.0778 36.5381 55.6875 37.0938C54.817 38.3328 53.954 39.5304 53 40.6875C52.2504 41.5106 51.4924 42.3104 50.8125 43.1875C50.7351 43.2874 50.7062 43.4437 50.625 43.5625C50.5274 43.7053 50.3899 43.8368 50.375 44C50.3681 44.0752 50.509 44.4497 50.5938 44.3438C50.5906 44.3477 50.9346 44.3514 50.9688 44.3438C51.1878 44.2947 51.3795 44.1625 51.5312 44C52.033 43.4628 52.4542 42.866 52.9375 42.3125C53.159 42.0588 53.3675 41.7844 53.5938 41.5312C54.598 40.4234 55.6133 39.3215 56.6562 38.25C56.7336 38.1705 56.7974 38.0793 56.875 38C56.5702 38.7392 56.2899 39.498 56 40.2188C55.2006 42.2063 54.4602 44.2289 53.75 46.25C52.5333 49.7123 51.3674 53.1659 50.4375 56.7188C48.4406 64.3483 47.3878 72.2039 47.6562 80.0938C47.772 80.4475 48.2995 80.5844 48.8438 80.4062C49.388 80.2281 49.7408 79.7913 49.625 79.4375C49.1976 68.7405 51.2971 58.2228 54.7188 48.125C55.8498 44.7871 56.988 41.4785 58.25 38.1875C58.3807 37.8466 58.4768 37.4742 58.6562 37.1562C58.8712 36.7754 59.1642 36.4845 59.3125 36.0625C59.3694 35.9006 59.2534 35.7466 59.1875 35.5938C59.2184 35.5729 59.25 35.5516 59.2812 35.5312C59.3283 35.4917 59.2185 35.4163 59.1562 35.4062C59.1499 35.3979 59.1315 35.4139 59.125 35.4062C59.027 35.2914 58.9382 35.2238 58.7812 35.1875C58.5171 35.1264 58.2672 35.3565 58.0312 35.5312C58.3159 35.1601 58.5952 34.79 58.9062 34.4375C58.9518 34.3859 59.0037 34.3095 59.0625 34.25C59.126 34.6806 59.2189 35.1005 59.2812 35.5312C59.3933 36.3062 59.5116 37.069 59.625 37.8438C59.9767 40.2456 60.3116 42.6643 60.6875 45.0625C60.8269 45.9521 60.9372 46.8432 61.1562 47.7188C61.2409 47.9102 61.5492 47.9741 61.8438 47.8438C62.1383 47.7134 62.3034 47.4415 62.2188 47.25C61.632 44.8416 61.4403 42.3205 61.0938 39.875C60.8644 38.2565 60.6609 36.6193 60.4375 35C60.3557 34.4071 60.436 33.2989 59.9375 33.0312Z" fill="#ffffff" stroke="none"/>
</g>
<g opacity="1">
<path d="M81.1562 19.7812C69.781 19.7545 58.3761 19.7424 47.0312 20.6875C38.7985 21.3733 30.6523 22.6617 22.5938 24.4688C22.3111 24.4332 22.0547 24.7527 22 25.1875C21.9453 25.6223 22.1236 25.9957 22.4062 26.0312C33.5181 23.4657 44.8086 21.9856 56.1875 21.2812C64.3742 20.7745 72.5819 20.7342 80.7812 20.6875C80.9426 20.7587 81.1404 20.6233 81.25 20.375C81.3596 20.1267 81.3177 19.8525 81.1562 19.7812Z" fill="#ffffff" stroke="none"/>
</g>
<g opacity="1">
<path d="M58.0312 25.5312C48.1774 25.5552 38.3481 26.534 28.5312 27.2812C28.2388 27.1819 27.8716 27.4875 27.7188 27.9375C27.5659 28.3875 27.6763 28.8069 27.9688 28.9062C40.0163 27.9021 52.1437 26.4916 64.25 26.7188C70.417 26.8345 76.5206 27.4708 82.5938 28.5312C82.7524 28.6347 83.0283 28.5254 83.1875 28.2812C83.3467 28.0371 83.3462 27.7597 83.1875 27.6562C74.8711 26.1239 66.4833 25.5107 58.0312 25.5312Z" fill="#ffffff" stroke="none"/>
</g>
</g>
</g>
</svg>
