<?xml version="1.0" encoding="UTF-8" standalone="no"?>
<!DOCTYPE svg PUBLIC "-//W3C//DTD SVG 1.1//EN" "http://www.w3.org/Graphics/SVG/1.1/DTD/svg11.dtd">
<!-- Created with Vectornator (http://vectornator.io/) -->
<svg height="100%" stroke-miterlimit="10" style="fill-rule:nonzero;clip-rule:evenodd;stroke-linecap:round;stroke-linejoin:round;" version="1.1" viewBox="0 0 100 100" width="100%" xml:space="preserve" xmlns="http://www.w3.org/2000/svg" xmlns:xlink="http://www.w3.org/1999/xlink">
<g id="Layer-1">
<g opacity="1">
<g opacity="1">
<path d="M23.1562 27.9375C22.6118 28.1013 22.2373 28.5211 22.3438 28.875C22.3044 44.3066 21.2915 59.7246 21.1562 75.1562C21.2139 75.3507 21.5134 75.4325 21.8125 75.3438C22.1116 75.255 22.3077 75.0069 22.25 74.8125C22.3584 69.6501 22.492 64.5 22.7812 59.3438C23.072 54.161 23.5268 48.9958 23.8125 43.8125C24.0978 38.6361 24.2446 33.4648 24.3125 28.2812C24.206 27.9274 23.7007 27.7737 23.1562 27.9375Z" fill="#ffffff" stroke="none"/>
</g>
<g opacity="1">
<path d="M71.875 21.9688C67.5848 21.6881 63.2566 21.7627 58.9375 22C45.6645 22.7293 32.5291 25.1194 19.2188 25.25C18.925 25.1245 18.5368 25.3919 18.3438 25.8438C18.1507 26.2956 18.2375 26.7495 18.5312 26.875C28.2178 26.7202 37.7701 25.4375 47.375 24.2812C59.5601 22.8144 71.9396 21.7692 83.9688 24.8438C84.1249 24.9587 84.3857 24.8653 84.5625 24.625C84.7393 24.3847 84.7812 24.1149 84.625 24C80.4233 22.8903 76.1652 22.2494 71.875 21.9688Z" fill="#ffffff" stroke="none"/>
</g>
<g opacity="1">
<path d="M16.3438 72.3125C16.0637 72.0891 15.5312 72.2566 15.1875 72.6875C14.8438 73.1184 14.8137 73.6516 15.0938 73.875C27.9233 77.9633 41.4616 78.3429 54.7812 77.1562C63.344 76.3934 71.823 75.0231 80.25 73.3438C80.4069 73.3711 80.5516 73.1789 80.5938 72.9375C80.6359 72.6961 80.5319 72.4961 80.375 72.4688C67.5024 74.9447 54.5119 76.6715 41.375 76.3125C32.8684 76.08 24.4511 74.9603 16.3438 72.3125Z" fill="#ffffff" stroke="none"/>
</g>
<g opacity="1">
<path d="M79.7839 25.509C83.1835 42.5072 78.4196 60.4777 79.5682 77.7067" fill="#000002" fill-opacity="0" fill-rule="nonzero" stroke="none"/>
<path d="M79.5312 24.875C78.9915 25.0951 78.6694 25.5554 78.8125 25.9062C82.0262 43.1526 78.005 60.5213 79.0312 77.875C79.0967 78.0693 79.3886 78.1632 79.6875 78.0625C79.9864 77.9618 80.1905 77.7255 80.125 77.5312C79.8457 71.7152 80.0802 65.9269 80.5312 60.125C81.1577 52.0677 82.142 44.0363 81.9062 35.9375C81.8002 32.2933 81.3821 28.7128 80.75 25.125C80.6069 24.7742 80.071 24.6549 79.5312 24.875Z" fill="#ffffff" stroke="none"/>
</g>
</g>
</g>
</svg>
