<?xml version="1.0" encoding="UTF-8" standalone="no"?>
<!DOCTYPE svg PUBLIC "-//W3C//DTD SVG 1.1//EN" "http://www.w3.org/Graphics/SVG/1.1/DTD/svg11.dtd">
<!-- Created with Vectornator (http://vectornator.io/) -->
<svg height="100%" stroke-miterlimit="10" style="fill-rule:nonzero;clip-rule:evenodd;stroke-linecap:round;stroke-linejoin:round;" version="1.1" viewBox="0 0 100 100" width="100%" xml:space="preserve" xmlns="http://www.w3.org/2000/svg" xmlns:vectornator="http://vectornator.io" xmlns:xlink="http://www.w3.org/1999/xlink">
<g id="Layer-1" vectornator:layerName="Layer 1">
<g opacity="1" vectornator:layerName="Group 1">
<g opacity="1" vectornator:layerName="Curve 3">
<path d="M65.125 4.15625C54.5127 4.17564 43.9049 5.68419 33.875 9.21875C26.2566 11.9035 18.9402 15.8289 13.0938 21.4688C10.5007 23.9702 8.26102 26.7893 6.78125 30.0938C5.774 32.3431 5.14252 34.738 4.875 37.1875C3.18359 52.6748 15.7762 66.8678 30.5938 69.5625C34.166 70.2121 37.8766 70.1497 41.4688 69.6875C52.9719 68.2074 66.2084 61.7019 71.1562 50.625C76.0696 39.6253 71.8761 25.6913 61 20.0625C57.2192 18.1058 53.0619 17.4766 48.8438 17.6875C48.5505 17.5767 48.2017 17.8301 48.0312 18.2812C47.8608 18.7324 47.9568 19.2017 48.25 19.3125C52.1925 19.1063 56.0563 19.7102 59.5938 21.5312C69.8788 26.8257 74.064 40.1905 69.4375 50.625C67.6075 54.7524 64.4197 58.1595 60.8125 60.8125C54.7973 65.2366 47.3615 67.8584 39.9375 68.4688C37.1388 68.6988 34.2702 68.6454 31.5 68.1562C27.3089 67.4161 23.322 65.8322 19.7812 63.4688C10.8797 57.527 4.69727 46.5857 6.375 35.7188C6.67379 33.7835 7.23825 31.884 8.03125 30.0938C9.41179 26.9771 11.5028 24.3301 13.9375 21.9688C19.9059 16.1802 27.4765 12.2654 35.3125 9.65625C48.1325 5.38763 61.848 4.37423 75.25 5.5C75.4107 5.58782 75.6461 5.46602 75.7812 5.21875C75.9164 4.97148 75.8795 4.71282 75.7188 4.625C72.2054 4.322 68.6624 4.14979 65.125 4.15625Z" fill="#ffffff" stroke="none"/>
</g>
</g>
</g>
</svg>
