<?xml version="1.0" encoding="UTF-8" standalone="no"?>
<!DOCTYPE svg PUBLIC "-//W3C//DTD SVG 1.1//EN" "http://www.w3.org/Graphics/SVG/1.1/DTD/svg11.dtd">
<!-- Created with Vectornator (http://vectornator.io/) -->
<svg height="100%" stroke-miterlimit="10" style="fill-rule:nonzero;clip-rule:evenodd;stroke-linecap:round;stroke-linejoin:round;" version="1.1" viewBox="0 0 100 100" width="100%" xml:space="preserve" xmlns="http://www.w3.org/2000/svg" xmlns:vectornator="http://vectornator.io" xmlns:xlink="http://www.w3.org/1999/xlink">
<g id="Layer-1" vectornator:layerName="Layer 1">
<g opacity="1" vectornator:layerName="Group 1">
<g opacity="1" vectornator:layerName="Curve 2">
<path d="M76.1875 59.5C75.8389 59.5205 75.5319 59.616 75.25 59.8125C74.6329 60.2427 74.9547 60.6893 75.1875 61.25C75.3819 61.7183 75.5563 62.1876 75.75 62.6562C76.6839 64.9157 77.5927 67.1726 78.3438 69.5C78.5355 70.0941 78.6972 70.7141 78.875 71.3125C79.0467 71.8906 79.17 72.4751 79.3125 73.0625C79.3231 73.1257 79.3331 73.1868 79.3438 73.25C79.415 73.6726 79.4865 74.1095 79.5625 74.5312C79.6247 74.8763 79.684 75.2182 79.75 75.5625C79.8079 75.8646 79.8573 76.2848 80 76.5938C80.1211 76.856 80.3045 77.0378 80.7188 76.9062C81.3231 76.7143 81.4435 76.3929 81.4375 76C81.4332 75.7224 81.3696 75.4242 81.3125 75.0938C81.2402 74.6759 81.1497 74.2994 81.0625 73.9062C81.0506 73.8333 81.043 73.7605 81.0312 73.6875C81.0073 73.5827 80.9945 73.4835 80.9688 73.375C80.7797 72.1868 80.6157 71.0068 80.4688 69.8125C80.3374 68.7454 80.2127 67.6679 80.1562 66.5938C80.1487 66.45 80.1592 66.3546 80.1562 66.25C80.8668 66.916 81.3813 67.8505 81.9688 68.5938C82.8237 69.6754 83.8047 70.6256 84.6875 71.6875C90.1778 78.2913 94.805 86.76 92.9062 95.5938C92.9657 95.9424 93.4637 96.154 94 96.0625C94.5363 95.971 94.9032 95.5986 94.8438 95.25C96.8636 85.5843 91.6595 76.6349 85.4688 69.625C84.7391 68.7988 83.9015 68.0478 83.25 67.1562C82.595 66.2599 82.035 65.1197 81.0312 64.5625C80.6575 64.355 80.1866 64.3168 79.7812 64.4375C78.9171 64.6948 78.603 65.2976 78.5 66C78.1489 65.0882 77.8735 64.1522 77.5 63.25C77.316 62.8056 77.1558 62.4403 76.9688 62C76.8201 61.6503 76.6804 61.3474 76.5312 61C76.4784 60.8768 76.4277 60.7483 76.375 60.625C76.9502 60.7408 77.513 60.9224 78.0625 61.125C79.4903 61.6514 80.8828 62.3031 82.25 62.9688C86.3102 64.9456 90.1795 67.272 94.1875 69.3438C94.3333 69.4859 94.6251 69.4119 94.8438 69.1875C95.0624 68.9631 95.1146 68.6734 94.9688 68.5312C90.3245 66.0912 85.8719 63.3135 81.0938 61.125C80.3713 60.7941 80.0076 60.6395 79.2812 60.3438C78.4699 60.0134 77.2332 59.4384 76.1875 59.5Z" fill="#ffffff" stroke="none"/>
</g>
<g opacity="1" vectornator:layerName="Curve 3">
<path d="M65.125 4.15625C54.5127 4.17564 43.9049 5.68419 33.875 9.21875C26.2566 11.9035 18.9402 15.8289 13.0938 21.4688C10.5007 23.9702 8.26102 26.7893 6.78125 30.0938C5.774 32.3431 5.14252 34.738 4.875 37.1875C3.18359 52.6748 15.7762 66.8678 30.5938 69.5625C34.166 70.2121 37.8766 70.1497 41.4688 69.6875C52.9719 68.2074 66.2084 61.7019 71.1562 50.625C76.0696 39.6253 71.8761 25.6913 61 20.0625C57.2192 18.1058 53.0619 17.4766 48.8438 17.6875C48.5505 17.5767 48.2017 17.8301 48.0312 18.2812C47.8608 18.7324 47.9568 19.2017 48.25 19.3125C52.1925 19.1063 56.0563 19.7102 59.5938 21.5312C69.8788 26.8257 74.064 40.1905 69.4375 50.625C67.6075 54.7524 64.4197 58.1595 60.8125 60.8125C54.7973 65.2366 47.3615 67.8584 39.9375 68.4688C37.1388 68.6988 34.2702 68.6454 31.5 68.1562C27.3089 67.4161 23.322 65.8322 19.7812 63.4688C10.8797 57.527 4.69727 46.5857 6.375 35.7188C6.67379 33.7835 7.23825 31.884 8.03125 30.0938C9.41179 26.9771 11.5028 24.3301 13.9375 21.9688C19.9059 16.1802 27.4765 12.2654 35.3125 9.65625C48.1325 5.38763 61.848 4.37423 75.25 5.5C75.4107 5.58782 75.6461 5.46602 75.7812 5.21875C75.9164 4.97148 75.8795 4.71282 75.7188 4.625C72.2054 4.322 68.6624 4.14979 65.125 4.15625Z" fill="#ffffff" stroke="none"/>
</g>
</g>
</g>
</svg>
