<?xml version="1.0" encoding="UTF-8" standalone="no"?>
<!DOCTYPE svg PUBLIC "-//W3C//DTD SVG 1.1//EN" "http://www.w3.org/Graphics/SVG/1.1/DTD/svg11.dtd">
<!-- Created with Vectornator (http://vectornator.io/) -->
<svg height="100%" stroke-miterlimit="10" style="fill-rule:nonzero;clip-rule:evenodd;stroke-linecap:round;stroke-linejoin:round;" version="1.1" viewBox="0 0 100 100" width="100%" xml:space="preserve" xmlns="http://www.w3.org/2000/svg" xmlns:xlink="http://www.w3.org/1999/xlink">
<g id="Layer-1">
<g opacity="1">
<g opacity="1">
<path d="M71.1875 40.2188C67.1231 39.9237 63.0433 39.9978 59 40.2812C48.3383 41.0287 37.7213 43.1582 27.5 46.25C27.3494 46.2482 27.2215 46.4245 27.2188 46.6562C27.216 46.888 27.3181 47.0607 27.4688 47.0625C38.3416 43.8631 49.5965 41.8891 60.9375 41.5625C68.0106 41.3588 75.1638 41.7817 81.9375 43.9688C82.2179 44.1912 82.7203 44.0251 83.0625 43.5938C83.4047 43.1624 83.4679 42.6287 83.1875 42.4062C79.2943 41.1855 75.2519 40.5138 71.1875 40.2188Z" fill="#ffffff" stroke="none"/>
</g>
<g opacity="1">
<path d="M38.5625 49.2812C35.6803 49.2179 32.7999 49.2815 29.9062 49.4688C29.6134 49.3647 29.2539 49.6432 29.0938 50.0938C28.9336 50.5443 29.0197 50.9897 29.3125 51.0938C33.3795 50.8031 37.458 50.7039 41.5312 50.9375C57.0514 51.8275 72.1182 56.1155 87.2812 59.2188C87.4391 59.3266 87.709 59.2115 87.875 58.9688C88.041 58.726 88.0328 58.4517 87.875 58.3438C81.0856 56.8918 74.3556 55.2603 67.5938 53.6875C60.8547 52.12 54.1024 50.621 47.2188 49.8438C44.336 49.5183 41.4447 49.3446 38.5625 49.2812Z" fill="#ffffff" stroke="none"/>
</g>
<g opacity="1">
<path d="M41.1562 35.7812C40.6107 35.876 40.0698 36.0604 39.5625 36.2188C38.1643 36.6553 36.8131 37.2026 35.4688 37.7812C29.3799 40.4019 23.46 43.5686 17.8125 47.0312C17.3399 47.321 16.8454 47.613 16.375 47.9062C16.0725 48.0948 15.4291 48.5144 15.125 48.7188C14.7855 48.9468 14.3959 49.2289 14.0625 49.4688C13.114 50.1513 10.5181 51.8095 12.0625 53.125C13.284 54.1655 15.354 54.329 16.8438 54.5312C19.0821 54.8352 21.3088 54.9941 23.5625 55.125C24.6098 55.1858 25.7119 55.1783 26.75 55.3438C37.5524 57.0655 48.0576 59.8148 58.2188 63.875C58.3695 64.0066 58.6726 63.9506 58.875 63.7188C59.0774 63.4869 59.1194 63.1941 58.9688 63.0625C51.7832 60.1347 44.4129 57.808 36.8438 56.0938C33.6426 55.3687 30.385 54.5622 27.125 54.1562C25.6452 53.972 24.1411 53.9091 22.6562 53.7812C20.4743 53.5933 18.2714 53.3921 16.125 52.9375C15.3733 52.7783 14.5988 52.5977 13.9062 52.25C13.7161 52.1545 13.5172 52.0682 13.375 51.9062C13.3262 51.8506 13.2748 51.6111 13.25 51.75C13.2408 51.8017 13.3074 51.6629 13.3438 51.625C13.399 51.5673 13.4413 51.523 13.5 51.4688C13.6777 51.3046 13.8721 51.1488 14.0625 51C14.6436 50.5457 15.2597 50.125 15.875 49.7188C17.687 48.5224 19.5794 47.4117 21.4688 46.3438C26.3306 43.5956 31.2996 41.0048 36.4688 38.875C37.6353 38.3943 38.8442 37.9279 40.0625 37.5938C40.5076 37.4717 41.0996 37.2473 41.5625 37.4062C41.8448 37.6225 42.3548 37.4343 42.6875 37C43.0202 36.5657 43.0635 36.0288 42.7812 35.8125C42.2516 35.67 41.7018 35.6865 41.1562 35.7812Z" fill="#ffffff" stroke="none"/>
</g>
</g>
</g>
</svg>
