<?xml version="1.0" encoding="UTF-8" standalone="no"?>
<!DOCTYPE svg PUBLIC "-//W3C//DTD SVG 1.1//EN" "http://www.w3.org/Graphics/SVG/1.1/DTD/svg11.dtd">
<!-- Created with Vectornator (http://vectornator.io/) -->
<svg height="100%" stroke-miterlimit="10" style="fill-rule:nonzero;clip-rule:evenodd;stroke-linecap:round;stroke-linejoin:round;" version="1.1" viewBox="0 0 100 100" width="100%" xml:space="preserve" xmlns="http://www.w3.org/2000/svg" xmlns:xlink="http://www.w3.org/1999/xlink">
<g id="Layer-1">
<g opacity="1">
<path d="M71.1482 12.8319C81.2372 15.9611 84.3259 34.6208 82.3649 43.3097C78.4833 60.5081 59.6178 76.2194 43.2502 79.8088C36.8068 81.2219 29.6989 80.9119 23.1176 81.2212C22.2824 81.2605 17.3228 81.8322 17.0779 81.0725C17.032 80.9303 21.0976 80.8792 21.3201 80.8495C23.7375 80.5271 26.0357 79.4061 28.007 77.9504C31.0779 75.6827 33.6932 72.8971 36.4195 70.2195C36.7216 69.9228 39.522 66.8854 39.6551 67.023C39.9243 67.3013 34.8367 71.6161 34.2625 72.0779C30.7409 74.9096 26.4152 77.1408 21.9672 77.5787C21.8358 77.5917 19.8882 77.7132 19.8821 77.7274C19.3952 78.8599 26.757 80.6125 27.5756 80.7752C36.2857 82.5069 44.9483 84.2595 53.3884 87.1681" fill="#000002" fill-opacity="0" fill-rule="nonzero" stroke="none"/>
<path d="M71.7812 12.0625C71.5027 11.8345 71.007 11.9777 70.6562 12.4062C70.3055 12.8348 70.2215 13.3658 70.5 13.5938C76.9383 15.7994 79.8404 23.4362 81.0938 29.5C81.2955 30.476 81.4947 31.6053 81.625 32.5938C81.8221 34.0887 81.9365 35.6174 81.9688 37.125C82.0062 38.8762 81.9367 40.6439 81.6562 42.375C81.0113 46.3561 79.3524 50.2158 77.3438 53.6875C73.4216 60.4663 67.7339 66.2273 61.375 70.75C59.1653 72.3216 56.8745 73.7484 54.4688 75C51.2563 76.6713 47.8597 78.0235 44.3438 78.9062C40.2458 79.9351 35.9895 80.208 31.7812 80.3438C30.7261 80.3778 29.6805 80.4129 28.625 80.4375C27.8519 80.2753 27.0768 80.1379 26.3125 79.9375C26.1534 79.8958 26.0026 79.8238 25.8438 79.7812C26.3147 79.5306 26.8082 79.3155 27.25 79.0312C29.786 77.3996 31.9883 75.2645 34.125 73.1562C34.8734 72.4178 35.6027 71.6531 36.3438 70.9062C36.394 70.8627 36.4498 70.8249 36.5 70.7812C36.8889 70.4428 37.2694 70.0908 37.6562 69.75C38.4129 69.0834 39.1757 68.414 39.8438 67.6562C40.0156 67.4613 40.5056 66.9322 40.2188 66.625C39.9091 66.2934 39.2819 66.6833 39 66.9375C38.8002 67.1177 38.5982 67.2803 38.4062 67.4688C37.7841 68.0794 37.1944 68.712 36.5938 69.3438C36.3911 69.5569 36.1733 69.7572 35.9688 69.9688C34.7387 71.0616 33.5084 72.1609 32.1562 73.0938C29.4688 74.9478 26.4302 76.4052 23.1875 76.9375C22.8281 76.9965 22.455 77.0472 22.0938 77.0938C21.8315 77.1276 21.5762 77.1384 21.3125 77.1562C20.8024 77.1908 19.0212 77.103 19.2812 78.1562C19.4792 78.9581 20.8448 79.3447 21.5 79.5938C21.9146 79.7514 22.3583 79.8276 22.7812 79.9688C21.9998 80.1678 21.1934 80.2909 20.3438 80.3125C20.0041 80.3211 19.6834 80.334 19.3438 80.3438C18.5603 80.3661 16.5632 80.1022 16.375 81.2812C16.3368 81.5203 16.7164 81.7131 16.875 81.8125C17.2855 82.0698 17.7998 82.0421 18.2812 82.0625C19.7326 82.124 21.1791 81.9504 22.625 81.8438C24.7955 81.6836 26.9792 81.695 29.1562 81.6562C34.3043 82.6893 39.4932 83.6709 44.5625 85.0312C47.4162 85.797 50.2341 86.7388 53.0625 87.5938C53.2171 87.7142 53.4709 87.6128 53.6562 87.375C53.8416 87.1372 53.8734 86.8705 53.7188 86.75C50.8874 85.886 48.0757 84.9309 45.2188 84.1562C43.4379 83.6734 41.6077 83.2704 39.8125 82.8438C37.7339 82.3498 35.6515 81.9377 33.5625 81.5C37.1454 81.3489 40.7266 81.0742 44.2188 80.2188C48.3249 79.2128 52.2568 77.5728 55.9688 75.5625C58.4831 74.2008 60.9154 72.6627 63.2188 70.9688C69.7911 66.1353 75.5957 59.995 79.5312 52.8125C81.3718 49.4534 82.9072 45.7968 83.5312 42C83.9096 39.6978 83.9419 37.325 83.8125 35C83.7246 33.422 83.54 31.8403 83.2812 30.2812C82.1326 23.3587 79.1088 14.6011 71.7812 12.0625ZM30.9688 74.875C30.3732 75.4192 29.7481 75.9563 29.125 76.4688C27.6617 77.6722 26.1174 78.6775 24.4375 79.375C24.0113 79.2488 23.5776 79.1421 23.1562 79C22.4927 78.7762 21.811 78.5406 21.1875 78.2188C21.1334 78.1908 21.0853 78.1547 21.0312 78.125C21.2684 78.1098 21.4819 78.0805 21.7188 78.0625C22.1338 78.031 22.5578 77.9729 22.9688 77.9062C24.1296 77.7178 25.2645 77.4165 26.375 77.0312C27.9748 76.4762 29.5094 75.7383 30.9688 74.875ZM24.5625 80.4688C24.6456 80.4918 24.7292 80.5088 24.8125 80.5312C24.6665 80.5376 24.5204 80.5549 24.375 80.5625C24.4401 80.5359 24.4977 80.4962 24.5625 80.4688Z" fill="#ffffff" stroke="none"/>
</g>
</g>
</svg>
